<?xml version="1.0" standalone="no"?>
<!DOCTYPE svg PUBLIC "-//W3C//DTD SVG 20010904//EN"
 "http://www.w3.org/TR/2001/REC-SVG-20010904/DTD/svg10.dtd">
<svg version="1.0" xmlns="http://www.w3.org/2000/svg"
 width="512.000000pt" height="512.000000pt" viewBox="0 0 512.000000 512.000000"
 preserveAspectRatio="xMidYMid meet">

<g transform="translate(0.000000,512.000000) scale(0.100000,-0.100000)"
fill="#000000" stroke="none">
<path d="M2600 5105 c-256 -57 -464 -224 -587 -471 -45 -91 -46 -97 -32 -122
8 -15 27 -33 42 -42 24 -13 30 -13 55 0 15 8 35 33 46 55 144 306 423 479 708
437 226 -33 366 -171 471 -462 l33 -91 -28 -59 c-55 -113 -71 -247 -43 -355
36 -137 128 -249 252 -308 61 -28 78 -31 158 -31 101 -1 162 16 264 71 l63 34
52 -17 c353 -117 509 -300 493 -579 -8 -162 -76 -303 -204 -426 -152 -147
-317 -218 -548 -234 -149 -11 -384 24 -555 83 l-55 19 -7 74 c-43 426 -359
740 -742 739 -50 0 -108 -4 -129 -9 l-38 -9 -35 70 c-73 145 -133 344 -154
513 -18 138 -25 161 -60 175 -40 16 -88 -2 -96 -37 -26 -104 63 -481 165 -698
l39 -83 -39 -21 c-21 -12 -102 -71 -180 -132 -166 -128 -250 -180 -351 -217
-67 -25 -85 -27 -223 -26 -136 0 -163 3 -290 34 -129 31 -152 34 -295 34 -128
-1 -169 -5 -235 -23 -263 -71 -425 -232 -491 -486 -26 -103 -24 -303 5 -410
24 -89 84 -221 132 -292 195 -282 633 -505 1090 -553 206 -21 500 -1 650 46
14 4 18 -8 23 -68 23 -247 123 -448 326 -662 353 -371 895 -585 1425 -563 159
7 288 26 425 63 111 30 268 90 293 112 19 17 22 63 6 93 -21 41 -51 41 -161
-1 -392 -147 -795 -157 -1188 -30 -116 38 -330 141 -427 207 -235 158 -432
385 -502 578 -137 380 30 771 376 882 179 57 312 26 555 -129 l76 -49 16 -72
c36 -163 123 -280 254 -344 75 -37 78 -38 192 -38 105 0 120 2 174 28 116 54
205 155 243 273 l16 53 113 40 c124 44 240 71 306 71 154 0 349 -118 436 -263
113 -188 121 -436 21 -646 -54 -115 -113 -194 -210 -285 -70 -64 -82 -81 -82
-108 0 -34 40 -78 73 -78 30 0 137 88 205 169 258 306 306 723 119 1027 -82
133 -238 256 -389 306 -57 19 -90 23 -180 22 -124 -1 -201 -18 -376 -83 -173
-64 -268 -84 -394 -84 -201 -1 -335 54 -682 280 -8 6 2 31 37 88 56 91 111
214 130 295 8 30 17 59 21 64 4 4 36 -1 71 -13 337 -112 709 -101 966 28 293
147 475 408 489 701 9 194 -43 342 -165 472 -111 117 -230 186 -462 266 -199
69 -277 111 -372 200 -100 93 -159 194 -228 387 -86 240 -155 361 -261 459
-76 71 -142 109 -244 142 -101 32 -267 41 -365 19z m929 -1076 c52 -60 142
-129 226 -172 l60 -31 -40 -12 c-64 -20 -152 -17 -201 6 -53 26 -120 97 -146
156 -23 53 -34 136 -24 189 l7 37 37 -61 c20 -34 57 -84 81 -112z m-964 -774
c107 -27 184 -72 266 -154 192 -192 249 -487 149 -763 -16 -43 -51 -115 -79
-160 -76 -124 -71 -119 -117 -106 -67 19 -210 14 -298 -11 -134 -37 -229 -93
-332 -196 -81 -80 -98 -103 -142 -195 -28 -58 -56 -129 -62 -157 -11 -49 -15
-53 -48 -62 -485 -129 -989 -49 -1389 218 -189 127 -305 297 -349 511 -32 159
1 344 83 468 127 190 408 263 742 191 46 -9 47 -11 80 -85 56 -124 151 -206
276 -238 199 -52 415 37 498 207 29 60 51 176 43 222 -6 29 0 35 115 125 138
109 209 152 294 180 74 23 189 26 270 5z m-855 -470 c-77 -159 -365 -182 -469
-37 l-19 27 137 1 c144 1 248 21 328 63 48 24 54 10 23 -54z m1702 -1202 c100
-35 214 -47 312 -35 44 6 89 14 99 17 32 13 18 -16 -35 -69 -65 -64 -115 -81
-221 -74 -86 6 -138 30 -190 87 -33 37 -67 91 -67 107 0 3 8 3 18 -2 9 -4 47
-18 84 -31z"/>
</g>
</svg>
