<?xml version="1.0" standalone="no"?>
<!DOCTYPE svg PUBLIC "-//W3C//DTD SVG 20010904//EN"
 "http://www.w3.org/TR/2001/REC-SVG-20010904/DTD/svg10.dtd">
<svg version="1.0" xmlns="http://www.w3.org/2000/svg"
 width="512.000000pt" height="511.000000pt" viewBox="0 0 512.000000 511.000000"
 preserveAspectRatio="xMidYMid meet">

<g transform="translate(0.000000,511.000000) scale(0.100000,-0.100000)"
fill="#000000" stroke="none">
<path d="M1745 4709 c-425 -36 -829 -147 -1067 -291 -195 -118 -402 -310 -518
-478 -179 -262 -209 -596 -76 -875 95 -200 252 -324 622 -490 394 -178 549
-270 694 -415 168 -167 259 -338 366 -683 68 -218 92 -284 145 -390 115 -230
313 -408 613 -552 291 -141 504 -184 761 -155 531 59 1009 381 1358 915 156
240 343 653 407 902 42 162 59 275 66 438 33 736 -383 1367 -1144 1736 -401
194 -805 291 -1416 339 -151 12 -667 11 -811 -1z m775 -149 c721 -49 1242
-202 1680 -493 196 -131 388 -321 514 -510 177 -266 272 -625 250 -947 -54
-808 -600 -1517 -1291 -1679 -425 -99 -1005 36 -1238 290 -116 126 -156 217
-256 574 -54 193 -104 336 -149 426 -52 103 -154 243 -235 324 -162 160 -315
249 -696 403 -357 145 -436 189 -541 300 -109 117 -154 233 -164 427 -7 129 8
211 59 314 43 89 182 228 294 294 237 141 595 235 1048 276 130 12 556 12 725
1z m-2250 -1095 c29 -114 89 -228 161 -308 116 -128 240 -200 599 -345 395
-160 507 -224 660 -381 170 -174 243 -320 349 -702 33 -118 71 -245 85 -282
113 -297 312 -484 638 -597 471 -163 928 -135 1331 81 l92 49 -58 -54 c-198
-184 -499 -334 -764 -382 -113 -20 -324 -20 -424 -1 -99 20 -248 76 -379 143
-343 175 -496 354 -610 716 -78 250 -131 401 -165 475 -84 181 -254 390 -417
514 -126 94 -255 165 -529 290 -308 139 -410 199 -504 294 -123 123 -176 261
-178 460 -1 117 14 192 55 288 l23 52 7 -115 c4 -63 16 -151 28 -195z"/>
<path d="M1750 4356 c-291 -32 -504 -84 -750 -186 -173 -71 -313 -190 -373
-317 -28 -60 -32 -77 -31 -153 1 -194 118 -347 350 -461 132 -64 180 -64 202
0 17 49 -3 71 -120 129 -174 85 -276 198 -281 313 l-2 44 80 3 c159 7 568 -37
821 -89 l52 -10 10 -71 c14 -94 53 -168 124 -233 79 -73 146 -98 263 -99 82
-1 96 2 155 31 67 33 107 65 148 117 l23 30 164 -82 c277 -140 529 -310 699
-472 201 -192 307 -394 465 -890 78 -242 138 -380 195 -447 l37 -42 -70 -41
c-254 -151 -571 -204 -838 -140 -219 53 -375 159 -446 304 -16 31 -54 150 -87
264 -78 275 -120 395 -185 527 -126 258 -296 449 -552 620 -128 86 -356 205
-394 205 -37 0 -69 -34 -69 -75 0 -44 15 -58 124 -110 319 -153 552 -354 701
-606 89 -150 147 -305 241 -644 26 -93 60 -198 76 -232 131 -279 475 -447 878
-429 200 8 340 43 515 125 238 112 432 283 590 521 150 225 256 514 272 744 6
81 5 83 -22 104 -35 28 -57 28 -90 -1 -22 -19 -29 -37 -40 -112 -49 -328 -186
-615 -404 -847 l-74 -79 -34 33 c-53 51 -95 148 -179 406 -203 630 -334 839
-697 1116 -43 32 -76 60 -75 62 13 13 190 93 264 120 226 82 459 122 749 130
l200 6 42 -64 c92 -140 144 -260 198 -461 14 -52 20 -60 51 -73 32 -14 38 -13
60 1 45 29 49 54 25 153 -71 291 -235 554 -481 770 -118 103 -239 181 -415
267 -340 166 -680 253 -1220 311 -196 21 -686 27 -845 10z m810 -160 c387 -40
632 -89 910 -182 158 -52 403 -170 512 -246 85 -59 207 -159 207 -170 1 -5
-41 -8 -92 -8 -330 0 -763 -110 -1031 -261 l-88 -50 -92 54 c-50 30 -163 91
-252 135 l-160 80 4 34 c2 19 -1 61 -7 94 -47 252 -316 391 -547 282 -46 -21
-140 -106 -174 -156 l-15 -22 -175 29 c-226 38 -421 61 -588 68 -89 4 -132 10
-129 17 9 27 150 109 269 157 214 84 456 137 718 159 145 12 555 4 730 -14z
m-340 -391 c49 -31 86 -85 100 -148 20 -91 -12 -176 -87 -233 -153 -117 -374
-10 -374 181 0 189 202 300 361 200z"/>
</g>
</svg>
