<?xml version="1.0" standalone="no"?>
<!DOCTYPE svg PUBLIC "-//W3C//DTD SVG 20010904//EN"
 "http://www.w3.org/TR/2001/REC-SVG-20010904/DTD/svg10.dtd">
<svg version="1.0" xmlns="http://www.w3.org/2000/svg"
 width="512.000000pt" height="512.000000pt" viewBox="0 0 512.000000 512.000000"
 preserveAspectRatio="xMidYMid meet">

<g transform="translate(0.000000,512.000000) scale(0.100000,-0.100000)"
fill="#000000" stroke="none">
<path d="M635 5109 c-74 -41 -73 -140 2 -178 12 -6 70 -11 132 -11 l110 0 26
-54 c28 -57 43 -154 31 -200 l-6 -26 -155 0 c-168 0 -198 -7 -221 -51 -18 -35
-18 -63 0 -98 21 -40 56 -51 156 -51 l90 0 -31 -47 c-33 -53 -69 -159 -69
-204 0 -23 -5 -29 -21 -29 -11 0 -30 -5 -42 -11 -98 -50 -60 -189 51 -189 26
0 33 -7 60 -63 17 -34 56 -91 86 -126 82 -95 100 -139 101 -241 0 -102 -19
-150 -89 -229 -90 -101 -129 -182 -146 -301 -19 -130 19 -275 98 -378 l33 -43
-28 -22 c-116 -88 -272 -268 -354 -408 -84 -145 -157 -360 -174 -514 -11 -101
-5 -95 -106 -95 -153 0 -176 -27 -165 -192 42 -646 495 -1167 1149 -1320 91
-22 103 -22 1332 -26 855 -2 1273 0 1348 8 617 63 1130 529 1257 1143 10 51
22 138 26 194 11 168 -11 193 -169 193 l-94 0 -7 55 c-8 71 -50 204 -89 280
-94 188 -254 348 -442 442 -64 33 -214 83 -246 83 -10 0 -58 36 -106 81 -189
175 -421 294 -686 351 -147 31 -408 31 -556 -1 -121 -26 -198 -51 -300 -97
l-75 -34 -105 44 c-117 49 -277 93 -373 102 -75 8 -88 20 -88 84 0 65 24 138
63 186 139 179 160 220 179 354 21 141 -23 276 -133 410 l-61 75 154 5 c141 5
158 8 215 34 68 31 151 109 179 170 l17 35 265 3 264 3 24 28 c33 38 33 96 0
134 l-24 28 -251 3 -251 3 0 139 0 140 1198 0 c1169 0 1198 -1 1229 -20 92
-56 94 -177 4 -237 l-34 -23 -536 0 c-595 0 -568 3 -597 -66 -12 -29 -12 -39
0 -68 29 -70 1 -67 622 -64 l559 3 57 28 c72 35 130 93 165 165 24 49 28 69
28 142 0 73 -4 93 -28 142 -35 72 -93 130 -165 165 l-57 28 -1236 3 -1235 2
-17 36 c-29 61 -112 139 -180 170 l-62 29 -740 2 c-529 2 -746 -1 -760 -8z
m714 -244 c23 -43 26 -62 26 -145 0 -110 -13 -142 -93 -234 -190 -217 -190
-505 0 -722 71 -81 91 -126 96 -216 6 -103 -14 -157 -96 -255 -104 -126 -142
-223 -142 -363 0 -137 42 -242 140 -355 72 -84 100 -150 100 -240 0 -90 -28
-156 -100 -240 -98 -113 -140 -218 -140 -355 0 -42 7 -102 15 -133 8 -32 15
-60 15 -62 0 -3 -47 -5 -105 -5 l-105 0 -20 33 c-45 72 -56 185 -27 272 11 31
42 80 81 127 196 235 196 491 0 726 -74 89 -98 148 -97 243 0 84 30 151 107
239 183 208 181 494 -5 705 -74 85 -102 151 -102 240 0 88 28 155 100 237 103
118 149 249 140 393 -3 44 -12 99 -21 123 l-15 43 111 -3 112 -3 25 -50z m446
-10 c25 -51 30 -71 29 -135 0 -92 -19 -139 -98 -234 -110 -133 -141 -212 -141
-361 0 -149 31 -228 141 -361 79 -96 98 -142 98 -234 0 -92 -27 -156 -104
-245 -178 -206 -186 -480 -19 -684 80 -98 99 -129 115 -192 28 -109 -2 -206
-95 -314 -123 -142 -167 -317 -122 -488 l17 -67 -108 0 -108 0 -26 53 c-20 38
-28 72 -32 127 -5 97 20 166 89 245 106 121 149 228 149 370 0 142 -43 249
-149 370 -69 79 -94 148 -89 245 6 89 26 135 104 226 95 113 134 215 134 355
0 145 -39 236 -165 389 -58 70 -79 139 -73 231 6 82 30 133 102 217 65 77 101
140 121 217 19 75 19 207 0 271 -8 27 -15 53 -15 57 0 4 48 6 108 5 l107 -3
30 -60z m349 31 c69 -52 71 -61 71 -346 0 -285 -2 -294 -72 -347 -36 -28 -38
-28 -200 -31 l-164 -3 7 28 c13 55 41 109 84 158 97 112 142 209 155 335 6 60
-9 168 -31 224 -7 17 -3 18 53 14 47 -3 70 -11 97 -32z m1036 -2240 c116 -18
239 -56 345 -106 85 -41 210 -118 203 -125 -3 -3 -39 -14 -81 -24 -42 -11
-105 -32 -141 -46 l-66 -26 -66 26 c-133 53 -209 68 -359 69 -83 1 -168 -5
-208 -13 l-67 -13 -93 87 c-50 49 -93 91 -95 95 -4 11 172 61 262 75 111 18
252 18 366 1z m-1111 -52 c437 -146 761 -536 819 -986 l9 -68 -122 0 -122 0
-7 55 c-14 118 -77 278 -159 400 -88 131 -281 291 -414 341 -37 14 -43 21 -48
53 -9 58 -36 142 -61 194 -15 28 -20 47 -13 47 6 0 59 -16 118 -36z m-1131
-273 c-6 -85 -33 -145 -103 -227 -64 -75 -106 -155 -126 -234 -17 -71 -15
-201 5 -265 8 -27 14 -51 12 -52 -2 -2 -62 -2 -133 -1 l-129 3 13 88 c26 183
111 383 230 541 70 93 209 229 225 220 6 -4 9 -33 6 -73z m2237 -121 c28 -7
52 -14 54 -16 2 -2 -26 -35 -62 -74 -36 -38 -82 -97 -103 -130 -37 -57 -54
-73 -54 -49 0 18 -58 145 -96 209 -18 32 -34 61 -34 63 0 19 214 17 295 -3z
m900 -4 c265 -71 482 -285 554 -546 33 -118 40 -110 -98 -110 l-118 0 -23 70
c-37 115 -124 225 -233 294 -16 9 -59 29 -95 44 -58 22 -82 26 -182 26 -100 0
-124 -4 -181 -26 -88 -35 -143 -71 -205 -133 -62 -64 -96 -121 -125 -209 l-22
-66 -118 0 c-138 0 -131 -8 -98 110 77 280 307 493 599 555 81 18 262 13 345
-9z m-2016 -76 c172 -92 317 -276 371 -472 32 -115 39 -108 -99 -108 l-118 0
-23 70 c-42 132 -149 254 -276 316 l-54 26 40 44 c22 24 52 68 67 99 15 30 29
55 31 55 2 0 30 -14 61 -30z m1962 -372 c29 -14 68 -39 86 -56 36 -34 93 -119
93 -139 0 -10 -64 -13 -320 -13 -256 0 -320 3 -320 13 0 20 57 105 93 139 96
89 247 112 368 56z m-2190 -4 c45 -23 109 -83 141 -133 42 -67 39 -71 -46 -71
-70 0 -76 2 -93 28 -30 43 -42 79 -49 137 -7 61 -3 65 47 39z m3077 -471 c-59
-457 -393 -860 -831 -1007 -194 -64 -113 -61 -1517 -61 -1175 0 -1281 1 -1356
17 -118 26 -197 53 -310 108 -368 178 -629 540 -682 948 l-9 62 2357 0 2357 0
-9 -67z"/>
<path d="M3271 4384 c-13 -9 -29 -32 -37 -50 -29 -68 30 -142 104 -131 112 18
110 179 -3 193 -28 4 -47 0 -64 -12z"/>
</g>
</svg>
