<?xml version="1.0" standalone="no"?>
<!DOCTYPE svg PUBLIC "-//W3C//DTD SVG 20010904//EN"
 "http://www.w3.org/TR/2001/REC-SVG-20010904/DTD/svg10.dtd">
<svg version="1.0" xmlns="http://www.w3.org/2000/svg"
 width="512.000000pt" height="512.000000pt" viewBox="0 0 512.000000 512.000000"
 preserveAspectRatio="xMidYMid meet">

<g transform="translate(0.000000,512.000000) scale(0.100000,-0.100000)"
fill="#000000" stroke="none">
<path d="M2380 5105 c-287 -45 -565 -206 -825 -477 -226 -233 -426 -547 -580
-907 -168 -390 -266 -767 -311 -1193 -21 -197 -15 -648 11 -808 82 -521 256
-890 565 -1201 205 -207 402 -328 677 -418 223 -74 476 -108 724 -98 386 16
698 112 989 304 87 58 148 109 250 212 311 313 483 680 567 1211 26 166 26
696 0 890 -38 275 -88 501 -164 735 -227 698 -599 1253 -1033 1542 -273 182
-574 254 -870 208z m433 -159 c354 -91 688 -375 969 -824 217 -345 387 -785
477 -1238 59 -291 66 -370 65 -724 0 -308 -1 -333 -27 -473 -106 -590 -367
-1018 -782 -1285 -546 -352 -1388 -347 -1925 11 -434 289 -685 728 -782 1367
-20 134 -17 672 5 830 66 464 191 877 382 1255 320 634 730 1010 1200 1101
107 21 297 12 418 -20z"/>
<path d="M2512 4697 c-28 -30 -28 -68 1 -94 16 -15 42 -22 92 -27 238 -20 498
-201 725 -501 66 -87 80 -100 109 -103 43 -4 71 21 71 63 0 23 -15 52 -54 104
-240 324 -500 516 -764 567 -109 21 -154 19 -180 -9z"/>
</g>
</svg>
